PathFileType	4	(X/Y/Z)	C:\Users\Basilio\Documents\Thesis Gigler\squatting_fais\c3dfiles\075\SLS_back_pre4\markers_experimental.trc
DataRate	CameraRate	NumFrames	NumMarkers	Units	OrigDataRate	OrigDataStartFrame	OrigNumFrames
200.000000	200.000000	4	61	mm	200.000000	844	1351
Frame#	Time	FHD			LBHD			C7			T10			CLAV			LSHO			LUUPA			LMUPA			LDUPA			LLEP			LMEP			LRAD			LUL			LRFIN			RSHO			RUPA1			RMUPA			RDUPA			RLEP			RMEP			RRAD			RUL			RUFIN			LASI			RASI			USACR			LSACR			RSACR			LTHI1			LTHI2			LTHI3			LTHI4			LLFC			LMFC			LTIB1			LTIB2			LTIB3			LTIB4			LLMAL			LMMAL			LHEE			LMT1			LMT2			LMT5			RTHI			RTHI2			RTHI3			RTHI4			RLFC			RMFC			RTIB1			RTIB2			RTIB3			RTIB4			RLMAL			RMMAL			RHEE			RMT1			RMT2			RMT5			RBHD			
		X1	Y1	Z1	X2	Y2	Z2	X3	Y3	Z3	X4	Y4	Z4	X5	Y5	Z5	X6	Y6	Z6	X7	Y7	Z7	X8	Y8	Z8	X9	Y9	Z9	X10	Y10	Z10	X11	Y11	Z11	X12	Y12	Z12	X13	Y13	Z13	X14	Y14	Z14	X15	Y15	Z15	X16	Y16	Z16	X17	Y17	Z17	X18	Y18	Z18	X19	Y19	Z19	X20	Y20	Z20	X21	Y21	Z21	X22	Y22	Z22	X23	Y23	Z23	X24	Y24	Z24	X25	Y25	Z25	X26	Y26	Z26	X27	Y27	Z27	X28	Y28	Z28	X29	Y29	Z29	X30	Y30	Z30	X31	Y31	Z31	X32	Y32	Z32	X33	Y33	Z33	X34	Y34	Z34	X35	Y35	Z35	X36	Y36	Z36	X37	Y37	Z37	X38	Y38	Z38	X39	Y39	Z39	X40	Y40	Z40	X41	Y41	Z41	X42	Y42	Z42	X43	Y43	Z43	X44	Y44	Z44	X45	Y45	Z45	X46	Y46	Z46	X47	Y47	Z47	X48	Y48	Z48	X49	Y49	Z49	X50	Y50	Z50	X51	Y51	Z51	X52	Y52	Z52	X53	Y53	Z53	X54	Y54	Z54	X55	Y55	Z55	X56	Y56	Z56	X57	Y57	Z57	X58	Y58	Z58	X59	Y59	Z59	X60	Y60	Z60	X61	Y61	Z61	

845	4.22	-230.8240661621094	1735.574829101563	-771.322448730469	-373.5802612304688	1612.031372070313	-838.1718750000002	-404.4604492187501	1503.220703125	-779.8183593750002	-451.548065185547	1186.525268554688	-782.5592041015627	-263.7887268066407	1441.436767578125	-780.9859619140627	-299.9069519042969	1503.6171875	-905.9671020507815	-150.601303100586	1450.470581054688	-1017.246215820313	-122.6670532226563	1471.695434570313	-982.0711059570315	-80.93667602539064	1449.10107421875	-1019.536315917969	4.025443553924561	1446.115478515625	-1012.057922363281	-5.277576923370362	1370.52783203125	-969.0944824218752	172.9777526855469	1489.680419921875	-824.387390136719	220.9170074462891	1503.510864257813	-879.8006591796877	219.3351135253907	1528.568481445313	-772.7173461914065	-305.1925964355469	1480.86083984375	-646.5615844726564	-171.2400665283203	1429.797973632813	-523.4635620117189	-137.3342895507813	1450.146850585938	-552.5131225585939	-102.173942565918	1428.407104492188	-506.6339721679689	-31.05564117431641	1432.956298828125	-504.4136657714845	-11.81175136566162	1358.8037109375	-528.4765014648439	152.9394683837891	1493.662963867188	-701.0968627929689	181.4287109375	1509.785766601563	-633.7778930664064	216.0791778564454	1544.754516601563	-740.0520629882814	-310.1267089843751	1021.861633300781	-927.852478027344	-306.9418945312501	993.2738037109377	-678.5315551757814	-460.5941467285157	1082.685546875	-795.066345214844	-470.5247497558595	1054.972534179688	-826.0397949218752	-467.3146057128907	1049.327880859375	-768.730407714844	-260.1471862792969	833.7922973632815	-1029.935668945313	-189.4772033691407	788.5100708007815	-1038.275634765625	-156.1080474853516	810.2910766601565	-1008.617370605469	-183.3759307861328	728.4308471679689	-1046.660888671875	-148.5424346923828	644.0216674804689	-1048.700439453125	-129.846923828125	610.0218505859376	-916.3095703125002	-189.5112457275391	522.8466186523439	-1005.0537109375	-255.7841186523438	548.9033813476564	-1055.302368164063	-239.8049011230469	512.3482055664064	-1035.582153320313	-310.8527832031251	479.087860107422	-1004.409423828125	-467.8591918945314	469.9631652832032	-1028.1298828125	-443.554412841797	468.5184326171876	-942.824401855469	-504.3682861328126	527.7094726562501	-997.8804931640627	-494.1526184082032	339.9252014160157	-907.6289672851565	-498.2470703125001	320.4132690429688	-951.944030761719	-530.5687255859376	338.6083679199219	-1006.083557128906	-374.6802978515626	784.4256591796877	-632.2821044921876	-332.9486694335938	733.5964965820314	-637.9585571289064	-301.6803894042969	741.9981079101564	-647.2638549804689	-355.7323913574219	652.8380126953126	-655.2587890625001	-359.5629577636719	503.5901184082032	-698.1878662109376	-320.0787658691407	509.2806396484376	-822.4482421875002	-303.6885986328126	365.2456359863282	-775.3662109375002	-351.4702148437501	282.4761047363282	-723.9111328125001	-314.6044616699219	280.8001098632813	-755.7797241210939	-326.0730590820313	239.2566680908204	-795.7832641601565	-391.7591552734376	115.5720596313477	-768.4525146484377	-367.3117675781251	143.8134918212891	-847.3135375976565	-449.3046264648439	99.81110382080081	-825.277526855469	-246.4597778320313	55.01958465576173	-837.9721679687502	-245.6133880615235	55.70476150512697	-795.2779541015627	-283.1661987304688	36.35722732543946	-742.6063232421876	-333.4698791503907	1650.329467773438	-685.1896972656251	
846	4.225	-231.6101837158204	1735.887939453125	-771.6651611328127	-374.1439514160157	1612.246826171875	-838.2327880859377	-404.902313232422	1503.287109375	-779.8511352539065	-451.4190063476564	1186.41552734375	-782.521667480469	-265.4080810546876	1441.028686523438	-780.8076171875002	-300.4031982421876	1503.85009765625	-906.0329589843752	-151.1284484863282	1451.071411132813	-1017.314819335938	-123.0747756958008	1472.235107421875	-982.026794433594	-81.53338623046876	1449.92333984375	-1019.633483886719	3.299836158752442	1446.960327148438	-1012.317016601563	-5.478887081146241	1371.424194335938	-969.424011230469	172.5457305908203	1490.538696289063	-824.638610839844	220.4275360107422	1504.453369140625	-880.0938720703127	218.7644805908204	1529.512451171875	-773.123718261719	-305.6758728027344	1481.105590820313	-646.6953125000001	-171.4026947021485	1430.5517578125	-523.6571044921876	-137.704330444336	1450.902465820313	-552.6748657226564	-102.4983596801758	1429.380249023438	-506.7868957519532	-31.37675094604493	1433.9111328125	-504.5603942871095	-11.99967193603516	1359.733520507813	-528.3850097656251	152.5778503417969	1494.8701171875	-701.5324707031251	180.9657745361328	1510.90185546875	-634.1366577148439	215.636215209961	1545.8251953125	-740.6006469726564	-309.6936950683594	1022.1845703125	-927.8825683593752	-306.6512145996094	993.3190917968752	-678.5723876953126	-460.3595275878907	1082.531494140625	-795.1046142578127	-470.1460571289064	1054.88525390625	-826.1239013671877	-466.9086303710939	1049.134155273438	-768.870300292969	-259.3638610839844	834.5780029296877	-1030.226440429688	-187.9955596923828	789.1573486328127	-1038.352172851563	-155.1271514892578	811.1995239257815	-1008.712646484375	-181.378662109375	729.3202514648439	-1046.932739257813	-147.56396484375	645.1150512695314	-1049.042236328125	-128.5336303710938	611.0989990234376	-917.0198364257815	-187.9437561035157	523.8259277343751	-1005.658996582031	-254.1862335205079	549.8087158203126	-1055.681884765625	-238.2693328857422	513.1434326171876	-1035.947631835938	-309.2922058105469	479.8047790527345	-1004.989196777344	-467.5339660644532	471.3978881835939	-1029.55810546875	-441.7510986328126	469.2901000976564	-943.5058593750002	-503.2195434570314	528.3912963867189	-998.586608886719	-492.7021789550782	340.4428405761719	-908.3927001953127	-496.5451965332032	321.1496887207032	-952.8944091796877	-528.7124023437501	339.2525634765626	-1006.897277832031	-374.5606994628907	784.5018310546877	-632.4404296875001	-332.9334716796876	733.6660156250001	-638.1893920898439	-301.6326599121094	741.9234619140626	-647.4194335937501	-355.8663940429688	652.8703002929689	-655.4758300781251	-359.9509277343751	503.6241455078126	-698.4392700195314	-320.2133178710938	509.3025512695314	-822.6275024414065	-303.9338073730469	365.2469787597657	-775.4018554687502	-351.7535400390626	282.5256652832032	-724.0026245117189	-314.6229248046876	280.7724609375001	-755.7258911132814	-326.1908264160157	239.2025451660157	-795.850280761719	-391.7578125000001	115.5620651245117	-768.5314941406252	-367.4030151367188	143.7957763671875	-847.4440917968752	-449.2787170410157	99.74056243896487	-825.329772949219	-246.5167541503907	55.01734542846681	-838.0445556640627	-245.538803100586	55.71205520629884	-795.331481933594	-283.1831970214844	36.35055160522462	-742.6131591796876	-334.0244750976563	1650.673950195313	-685.0265502929689	
847	4.23	-232.1987304687501	1735.984741210938	-771.7571411132815	-374.8750000000001	1612.2880859375	-838.1547851562502	-405.4760742187501	1503.219848632813	-779.842224121094	-451.2878417968751	1186.256591796875	-782.5354003906252	-265.9914550781251	1441.235107421875	-780.965026855469	-300.9729309082032	1504.006713867188	-906.1687011718752	-151.5928039550782	1452.058837890625	-1017.522338867188	-123.8918991088867	1472.723266601563	-981.7814941406252	-82.1918182373047	1451.269409179688	-1019.505249023438	3.122590065002442	1447.74365234375	-1012.526672363281	-5.666389465332032	1372.043334960938	-969.7033691406252	172.0836944580078	1491.506225585938	-824.8854980468752	219.8604278564454	1505.440673828125	-880.314880371094	218.2801666259766	1530.50537109375	-773.3553466796877	-306.0988159179688	1481.316284179688	-646.7752685546876	-171.6789093017578	1431.15478515625	-523.6690673828126	-138.0020599365235	1451.551879882813	-552.7471313476564	-102.7908248901367	1430.22119140625	-506.9431457519532	-31.75029945373536	1434.815551757813	-504.9465942382814	-12.13842105865479	1360.689208984375	-528.3911743164064	152.2032012939453	1495.876586914063	-701.6503295898439	180.5395050048828	1512.131469726563	-634.4857788085939	215.4456481933594	1546.919311523438	-741.3732299804689	-309.2366638183594	1022.483154296875	-927.854675292969	-306.2892150878907	993.297058105469	-678.6252441406251	-460.1324768066407	1082.387329101563	-795.1489868164065	-469.8843994140626	1054.646606445313	-826.2696533203127	-466.617889404297	1048.9560546875	-768.9669189453127	-258.5862121582032	835.1690063476565	-1030.549926757813	-186.8158416748047	789.781188964844	-1038.25830078125	-154.1070861816407	812.012145996094	-1008.866394042969	-180.1325225830078	730.2252807617189	-1047.391967773438	-146.1626281738282	646.1163330078126	-1049.5703125	-127.2442474365235	611.8792724609376	-917.3178710937502	-186.361328125	524.5354003906251	-1006.001403808594	-252.6376037597657	550.7622070312501	-1056.231079101563	-236.6074371337891	514.1019287109376	-1036.49853515625	-307.7392578125001	480.4306030273439	-1005.755187988281	-465.1206970214845	471.4624633789064	-1029.676025390625	-440.1320800781251	469.7241210937501	-944.3851318359377	-501.3654785156251	528.9421997070314	-999.293884277344	-490.3931274414064	341.1606445312501	-910.1713867187502	-494.7880859375001	321.5312805175782	-953.6441040039065	-527.2178344726564	339.8752746582032	-1007.752136230469	-374.3752746582032	784.5238037109377	-632.6300659179689	-332.8426818847657	733.6050415039064	-638.3596191406251	-301.5733032226563	741.8108520507814	-647.5848999023439	-355.9382629394532	652.8224487304689	-655.6735229492189	-360.2280883789063	503.466522216797	-698.6878051757814	-320.2794189453126	509.282440185547	-822.764587402344	-304.0474548339844	365.2023010253907	-775.5584716796877	-351.9137268066407	282.4667663574219	-724.1215820312501	-314.7369079589844	280.7619018554688	-755.7836914062501	-326.2564086914063	239.0977325439454	-795.861267089844	-391.7594604492189	115.5368347167969	-768.6040039062502	-367.3914184570313	143.7303009033203	-847.4649047851565	-449.2779541015626	99.66443634033206	-825.4204101562502	-246.5516357421876	55.05398559570314	-838.0573730468752	-245.5655975341797	55.6963577270508	-795.3378906250002	-283.1720275878907	36.31848907470704	-742.6355590820314	-334.5368652343751	1650.620971679688	-685.2207641601564	
848	4.235	-232.6189117431641	1736.007568359375	-771.7589111328127	-375.3363342285157	1612.387084960938	-838.2564086914065	-405.8866271972657	1503.140625	-779.842224121094	-451.107879638672	1185.954345703125	-782.5842895507815	-266.4376831054688	1441.367553710938	-780.9260253906252	-301.5306091308594	1504.192260742188	-906.2025146484377	-151.9521942138672	1452.39208984375	-1017.549194335938	-124.2618026733399	1473.281005859375	-982.0605468750002	-83.6043167114258	1452.165283203125	-1019.946166992188	2.981019973754883	1448.41357421875	-1012.627258300781	-5.993663787841798	1372.786499023438	-969.9365234375002	171.6038360595703	1492.352294921875	-825.0300903320315	218.7330169677735	1506.614135742188	-880.8714599609377	217.8872985839844	1531.45703125	-773.6697998046877	-306.6229858398438	1481.41259765625	-646.8918457031251	-172.0576934814453	1431.603393554688	-523.9174804687501	-138.4298095703125	1452.084838867188	-553.0029907226564	-103.1199798583985	1430.861328125	-507.086883544922	-31.94268798828126	1435.951171875	-504.985321044922	-12.28122425079346	1361.698364257813	-528.3651733398439	151.769760131836	1496.618408203125	-701.9325561523439	179.9156036376953	1513.089721679688	-634.9362792968751	214.5948333740235	1547.738037109375	-741.4426879882814	-307.9979248046876	1022.765441894531	-927.565856933594	-305.9377441406251	993.1889648437502	-678.6119384765626	-459.8630981445314	1082.13330078125	-795.2879638671877	-469.523406982422	1054.418579101563	-826.380065917969	-466.3236389160157	1048.71826171875	-769.142761230469	-257.7272644042969	835.5183105468752	-1030.664916992188	-187.0950164794922	791.2034301757815	-1039.094604492188	-153.0867004394532	812.6760253906252	-1009.008239746094	-178.9974975585938	730.9617919921876	-1047.56298828125	-144.768051147461	646.8698730468751	-1049.868408203125	-125.8396377563477	612.5854492187501	-917.8421020507815	-184.8401641845703	525.3645019531251	-1006.404968261719	-251.2299194335938	551.6408081054689	-1056.707397460938	-235.1184997558594	514.8645019531251	-1036.968505859375	-305.6667480468751	481.1888732910157	-1005.7841796875	-463.561004638672	472.2177734375001	-1030.526977539063	-438.9064941406251	470.0999145507814	-944.9863891601565	-499.9075927734376	529.4235839843751	-999.8942871093752	-488.7639160156251	341.4823303222657	-910.8042602539065	-493.2186279296876	322.0480041503907	-954.4916992187502	-525.4035034179689	340.4158935546876	-1008.666625976563	-374.1913452148438	784.5146484375002	-632.7026977539064	-332.6942749023438	733.5231933593751	-638.5657958984376	-301.4152832031251	741.6254272460939	-647.6525878906251	-355.9493713378907	652.7918090820314	-655.8409423828126	-360.2629699707032	503.4262084960939	-698.8389892578126	-320.2689514160157	509.1355285644532	-822.8267822265627	-304.1715698242188	365.0640869140626	-775.5899658203127	-352.0153808593751	282.3792419433594	-724.2497558593751	-314.8096923828126	280.6920776367188	-755.8556518554689	-326.3245544433594	238.9936981201172	-795.9448242187502	-391.7748413085939	115.4831848144532	-768.6434326171877	-367.4217529296876	143.640625	-847.6044921875002	-449.294891357422	99.54592132568362	-825.4792480468752	-246.4656372070313	54.97970199584962	-838.0139770507815	-245.5411987304688	55.65156936645509	-795.3646240234377	-283.1821594238282	36.31333923339844	-742.6318969726564	-335.1619873046876	1650.4453125	-685.3586425781251	
